<?xml version="1.0" encoding="UTF-8" standalone="no"?>
<!DOCTYPE svg PUBLIC "-//W3C//DTD SVG 1.1//EN" "http://www.w3.org/Graphics/SVG/1.1/DTD/svg11.dtd">
<svg version="1.1" xmlns="http://www.w3.org/2000/svg" xmlns:xlink="http://www.w3.org/1999/xlink" preserveAspectRatio="xMidYMid meet" viewBox="0 0 640 640" width="640" height="640"><defs><path d="M165 130L205 130L205 370L165 370L165 130Z" id="a3ML1xLH6Q"></path><path d="M445 130L485 130L485 370L445 370L445 130Z" id="b1ibDY0YV1"></path><path d="M305 50L345 50L345 290L305 290L305 50Z" id="aboJhFkiM"></path><path d="M65 90L305 90L305 130L65 130L65 90Z" id="bmlsJSEah"></path><path d="M345 90L585 90L585 130L345 130L345 90Z" id="a1UADwJAVq"></path><path d="M197.77 347.69L165 370.64L325.6 600L358.37 577.06L197.77 347.69Z" id="c2KiW3dKD3"></path><path d="M169 110L201 110L201 369L169 369L169 110Z" id="c5LCWr4Ptg"></path><path d="M69 94L301 94L301 126L69 126L69 94Z" id="blVmQzq5I"></path><path d="M345 94L581 94L581 126L345 126L345 94Z" id="d1X5RTup0i"></path><path d="M452.6 347.69L485.36 370.64L324.76 600L292 577.06L452.6 347.69Z" id="aC0IUtmdM"></path><path d="M449 110L481 110L481 368L449 368L449 110Z" id="a5Ko3t79G"></path><path d="M305 290L505 290L505 330L305 330L305 290Z" id="ceSf4I5t3"></path><path d="M309 54L340.92 54L340.92 310L309 310L309 54Z" id="a41idRg4Tk"></path><path d="M309 294L501 294L501 326L309 326L309 294Z" id="a2gHYrVR1l"></path><path d="M195.49 350.6L168.87 369.24L326.54 594.42L353.16 575.78L195.49 350.6Z" id="dy9wclNtW"></path><path d="M454.87 350.6L481.49 369.24L323.83 594.42L297.2 575.78L454.87 350.6Z" id="d2xnXkA81"></path></defs><g><g><g><use xlink:href="#a3ML1xLH6Q" opacity="1" fill="#000000" fill-opacity="1"></use><g><use xlink:href="#a3ML1xLH6Q" opacity="1" fill-opacity="0" stroke="#c899b1" stroke-width="0" stroke-opacity="1"></use></g></g><g><use xlink:href="#b1ibDY0YV1" opacity="1" fill="#000000" fill-opacity="1"></use><g><use xlink:href="#b1ibDY0YV1" opacity="1" fill-opacity="0" stroke="#c899b1" stroke-width="0" stroke-opacity="1"></use></g></g><g><use xlink:href="#aboJhFkiM" opacity="1" fill="#000000" fill-opacity="1"></use><g><use xlink:href="#aboJhFkiM" opacity="1" fill-opacity="0" stroke="#c899b1" stroke-width="0" stroke-opacity="1"></use></g></g><g><use xlink:href="#bmlsJSEah" opacity="1" fill="#000000" fill-opacity="1"></use></g><g><use xlink:href="#a1UADwJAVq" opacity="1" fill="#000000" fill-opacity="1"></use></g><g><use xlink:href="#c2KiW3dKD3" opacity="1" fill="#000000" fill-opacity="1"></use><g><use xlink:href="#c2KiW3dKD3" opacity="1" fill-opacity="0" stroke="#c899b1" stroke-width="0" stroke-opacity="1"></use></g></g><g><use xlink:href="#c5LCWr4Ptg" opacity="1" fill="#ffffff" fill-opacity="1"></use><g><use xlink:href="#c5LCWr4Ptg" opacity="1" fill-opacity="0" stroke="#c899b1" stroke-width="0" stroke-opacity="1"></use></g></g><g transform="matrix(1.0172413793103445 0 0 1 -1.1896551724137794 0)" vector-effect="non-scaling-stroke"><use xlink:href="#blVmQzq5I" opacity="1" fill="#ffffff" fill-opacity="1"></use></g><g><use xlink:href="#d1X5RTup0i" opacity="1" fill="#ffffff" fill-opacity="1"></use></g><g><use xlink:href="#aC0IUtmdM" opacity="1" fill="#000000" fill-opacity="1"></use><g><use xlink:href="#aC0IUtmdM" opacity="1" fill-opacity="0" stroke="#c899b1" stroke-width="0" stroke-opacity="1"></use></g></g><g><use xlink:href="#a5Ko3t79G" opacity="1" fill="#ffffff" fill-opacity="1"></use><g><use xlink:href="#a5Ko3t79G" opacity="1" fill-opacity="0" stroke="#c899b1" stroke-width="0" stroke-opacity="1"></use></g></g><g><use xlink:href="#ceSf4I5t3" opacity="1" fill="#000000" fill-opacity="1"></use></g><g><use xlink:href="#a41idRg4Tk" opacity="1" fill="#ffffff" fill-opacity="1"></use><g><use xlink:href="#a41idRg4Tk" opacity="1" fill-opacity="0" stroke="#c899b1" stroke-width="0" stroke-opacity="1"></use></g></g><g><use xlink:href="#a2gHYrVR1l" opacity="1" fill="#ffffff" fill-opacity="1"></use></g><g><use xlink:href="#dy9wclNtW" opacity="1" fill="#ffffff" fill-opacity="1"></use><g><use xlink:href="#dy9wclNtW" opacity="1" fill-opacity="0" stroke="#c899b1" stroke-width="0" stroke-opacity="1"></use></g></g><g><use xlink:href="#d2xnXkA81" opacity="1" fill="#ffffff" fill-opacity="1"></use><g><use xlink:href="#d2xnXkA81" opacity="1" fill-opacity="0" stroke="#c899b1" stroke-width="0" stroke-opacity="1"></use></g></g></g></g></svg>